<?xml version="1.0" encoding="utf-8" standalone="no"?>
<!DOCTYPE svg PUBLIC "-//W3C//DTD SVG 1.1//EN"
  "http://www.w3.org/Graphics/SVG/1.1/DTD/svg11.dtd">
<svg xmlns:xlink="http://www.w3.org/1999/xlink" width="415.7125pt" height="355.338594pt" viewBox="0 0 415.7125 355.338594" xmlns="http://www.w3.org/2000/svg" version="1.1">
 <metadata>
  <rdf:RDF xmlns:dc="http://purl.org/dc/elements/1.1/" xmlns:cc="http://creativecommons.org/ns#" xmlns:rdf="http://www.w3.org/1999/02/22-rdf-syntax-ns#">
   <cc:Work>
    <dc:type rdf:resource="http://purl.org/dc/dcmitype/StillImage"/>
    <dc:date>2026-03-26T12:14:26.214088</dc:date>
    <dc:format>image/svg+xml</dc:format>
    <dc:creator>
     <cc:Agent>
      <dc:title>Matplotlib v3.10.6, https://matplotlib.org/</dc:title>
     </cc:Agent>
    </dc:creator>
   </cc:Work>
  </rdf:RDF>
 </metadata>
 <defs>
  <style type="text/css">*{stroke-linejoin: round; stroke-linecap: butt}</style>
 </defs>
 <g id="figure_1">
  <g id="patch_1">
   <path d="M 0 355.338594 
L 415.7125 355.338594 
L 415.7125 0 
L 0 0 
z
" style="fill: #ffffff"/>
  </g>
  <g id="axes_1">
   <g id="patch_2">
    <path d="M 40.2325 308.981875 
L 408.5125 308.981875 
L 408.5125 31.781875 
L 40.2325 31.781875 
z
" style="fill: #ffffff"/>
   </g>
   <g id="PathCollection_1">
    <defs>
     <path id="mbf33d94de4" d="M 0 3.741657 
C 0.992299 3.741657 1.94409 3.347413 2.645751 2.645751 
C 3.347413 1.94409 3.741657 0.992299 3.741657 0 
C 3.741657 -0.992299 3.347413 -1.94409 2.645751 -2.645751 
C 1.94409 -3.347413 0.992299 -3.741657 0 -3.741657 
C -0.992299 -3.741657 -1.94409 -3.347413 -2.645751 -2.645751 
C -3.347413 -1.94409 -3.741657 -0.992299 -3.741657 0 
C -3.741657 0.992299 -3.347413 1.94409 -2.645751 2.645751 
C -1.94409 3.347413 -0.992299 3.741657 0 3.741657 
z
" style="stroke: #ffffff; stroke-opacity: 0.9; stroke-width: 0.45"/>
    </defs>
    <g clip-path="url(#pe5f1491c98)">
     <use xlink:href="#mbf33d94de4" x="316.759237" y="203.613005" style="fill: #9e9e9e; fill-opacity: 0.9; stroke: #ffffff; stroke-opacity: 0.9; stroke-width: 0.45"/>
     <use xlink:href="#mbf33d94de4" x="120.618299" y="202.750464" style="fill: #9e9e9e; fill-opacity: 0.9; stroke: #ffffff; stroke-opacity: 0.9; stroke-width: 0.45"/>
     <use xlink:href="#mbf33d94de4" x="78.840227" y="137.57129" style="fill: #9e9e9e; fill-opacity: 0.9; stroke: #ffffff; stroke-opacity: 0.9; stroke-width: 0.45"/>
     <use xlink:href="#mbf33d94de4" x="371.544254" y="132.187296" style="fill: #9e9e9e; fill-opacity: 0.9; stroke: #ffffff; stroke-opacity: 0.9; stroke-width: 0.45"/>
     <use xlink:href="#mbf33d94de4" x="88.421308" y="134.766199" style="fill: #9e9e9e; fill-opacity: 0.9; stroke: #ffffff; stroke-opacity: 0.9; stroke-width: 0.45"/>
     <use xlink:href="#mbf33d94de4" x="290.332138" y="63.398381" style="fill: #9e9e9e; fill-opacity: 0.9; stroke: #ffffff; stroke-opacity: 0.9; stroke-width: 0.45"/>
     <use xlink:href="#mbf33d94de4" x="335.65499" y="102.457041" style="fill: #9e9e9e; fill-opacity: 0.9; stroke: #ffffff; stroke-opacity: 0.9; stroke-width: 0.45"/>
     <use xlink:href="#mbf33d94de4" x="344.58817" y="92.498442" style="fill: #9e9e9e; fill-opacity: 0.9; stroke: #ffffff; stroke-opacity: 0.9; stroke-width: 0.45"/>
     <use xlink:href="#mbf33d94de4" x="354.299676" y="221.995952" style="fill: #9e9e9e; fill-opacity: 0.9; stroke: #ffffff; stroke-opacity: 0.9; stroke-width: 0.45"/>
     <use xlink:href="#mbf33d94de4" x="293.263075" y="159.403992" style="fill: #9e9e9e; fill-opacity: 0.9; stroke: #ffffff; stroke-opacity: 0.9; stroke-width: 0.45"/>
     <use xlink:href="#mbf33d94de4" x="253.791191" y="122.248161" style="fill: #9e9e9e; fill-opacity: 0.9; stroke: #ffffff; stroke-opacity: 0.9; stroke-width: 0.45"/>
     <use xlink:href="#mbf33d94de4" x="237.11211" y="74.376786" style="fill: #9e9e9e; fill-opacity: 0.9; stroke: #ffffff; stroke-opacity: 0.9; stroke-width: 0.45"/>
     <use xlink:href="#mbf33d94de4" x="286.331442" y="202.652826" style="fill: #9e9e9e; fill-opacity: 0.9; stroke: #ffffff; stroke-opacity: 0.9; stroke-width: 0.45"/>
     <use xlink:href="#mbf33d94de4" x="390.405778" y="136.780513" style="fill: #9e9e9e; fill-opacity: 0.9; stroke: #ffffff; stroke-opacity: 0.9; stroke-width: 0.45"/>
     <use xlink:href="#mbf33d94de4" x="371.120272" y="188.057463" style="fill: #9e9e9e; fill-opacity: 0.9; stroke: #ffffff; stroke-opacity: 0.9; stroke-width: 0.45"/>
     <use xlink:href="#mbf33d94de4" x="117.436535" y="135.423024" style="fill: #9e9e9e; fill-opacity: 0.9; stroke: #ffffff; stroke-opacity: 0.9; stroke-width: 0.45"/>
     <use xlink:href="#mbf33d94de4" x="391.7725" y="136.494998" style="fill: #9e9e9e; fill-opacity: 0.9; stroke: #ffffff; stroke-opacity: 0.9; stroke-width: 0.45"/>
     <use xlink:href="#mbf33d94de4" x="354.278383" y="92.211167" style="fill: #9e9e9e; fill-opacity: 0.9; stroke: #ffffff; stroke-opacity: 0.9; stroke-width: 0.45"/>
     <use xlink:href="#mbf33d94de4" x="326.6603" y="87.151841" style="fill: #9e9e9e; fill-opacity: 0.9; stroke: #ffffff; stroke-opacity: 0.9; stroke-width: 0.45"/>
     <use xlink:href="#mbf33d94de4" x="170.295252" y="245.615088" style="fill: #9e9e9e; fill-opacity: 0.9; stroke: #ffffff; stroke-opacity: 0.9; stroke-width: 0.45"/>
     <use xlink:href="#mbf33d94de4" x="346.293654" y="133.308796" style="fill: #9e9e9e; fill-opacity: 0.9; stroke: #ffffff; stroke-opacity: 0.9; stroke-width: 0.45"/>
     <use xlink:href="#mbf33d94de4" x="333.501922" y="60.637424" style="fill: #9e9e9e; fill-opacity: 0.9; stroke: #ffffff; stroke-opacity: 0.9; stroke-width: 0.45"/>
     <use xlink:href="#mbf33d94de4" x="288.824287" y="248.11829" style="fill: #9e9e9e; fill-opacity: 0.9; stroke: #ffffff; stroke-opacity: 0.9; stroke-width: 0.45"/>
     <use xlink:href="#mbf33d94de4" x="261.410905" y="175.010881" style="fill: #9e9e9e; fill-opacity: 0.9; stroke: #ffffff; stroke-opacity: 0.9; stroke-width: 0.45"/>
     <use xlink:href="#mbf33d94de4" x="109.219264" y="153.369446" style="fill: #9e9e9e; fill-opacity: 0.9; stroke: #ffffff; stroke-opacity: 0.9; stroke-width: 0.45"/>
     <use xlink:href="#mbf33d94de4" x="75.513242" y="167.930385" style="fill: #9e9e9e; fill-opacity: 0.9; stroke: #ffffff; stroke-opacity: 0.9; stroke-width: 0.45"/>
     <use xlink:href="#mbf33d94de4" x="283.561676" y="235.186262" style="fill: #9e9e9e; fill-opacity: 0.9; stroke: #ffffff; stroke-opacity: 0.9; stroke-width: 0.45"/>
     <use xlink:href="#mbf33d94de4" x="360.042691" y="159.551973" style="fill: #9e9e9e; fill-opacity: 0.9; stroke: #ffffff; stroke-opacity: 0.9; stroke-width: 0.45"/>
     <use xlink:href="#mbf33d94de4" x="305.248411" y="213.692733" style="fill: #9e9e9e; fill-opacity: 0.9; stroke: #ffffff; stroke-opacity: 0.9; stroke-width: 0.45"/>
     <use xlink:href="#mbf33d94de4" x="335.11279" y="232.182987" style="fill: #9e9e9e; fill-opacity: 0.9; stroke: #ffffff; stroke-opacity: 0.9; stroke-width: 0.45"/>
     <use xlink:href="#mbf33d94de4" x="203.767875" y="82.330164" style="fill: #9e9e9e; fill-opacity: 0.9; stroke: #ffffff; stroke-opacity: 0.9; stroke-width: 0.45"/>
     <use xlink:href="#mbf33d94de4" x="366.41368" y="192.718616" style="fill: #9e9e9e; fill-opacity: 0.9; stroke: #ffffff; stroke-opacity: 0.9; stroke-width: 0.45"/>
     <use xlink:href="#mbf33d94de4" x="102.501849" y="174.552078" style="fill: #9e9e9e; fill-opacity: 0.9; stroke: #ffffff; stroke-opacity: 0.9; stroke-width: 0.45"/>
     <use xlink:href="#mbf33d94de4" x="141.487003" y="205.159098" style="fill: #9e9e9e; fill-opacity: 0.9; stroke: #ffffff; stroke-opacity: 0.9; stroke-width: 0.45"/>
     <use xlink:href="#mbf33d94de4" x="185.42988" y="184.037582" style="fill: #9e9e9e; fill-opacity: 0.9; stroke: #ffffff; stroke-opacity: 0.9; stroke-width: 0.45"/>
     <use xlink:href="#mbf33d94de4" x="225.832937" y="100.287911" style="fill: #9e9e9e; fill-opacity: 0.9; stroke: #ffffff; stroke-opacity: 0.9; stroke-width: 0.45"/>
     <use xlink:href="#mbf33d94de4" x="341.248363" y="142.532347" style="fill: #9e9e9e; fill-opacity: 0.9; stroke: #ffffff; stroke-opacity: 0.9; stroke-width: 0.45"/>
     <use xlink:href="#mbf33d94de4" x="260.717463" y="131.905087" style="fill: #9e9e9e; fill-opacity: 0.9; stroke: #ffffff; stroke-opacity: 0.9; stroke-width: 0.45"/>
     <use xlink:href="#mbf33d94de4" x="260.000831" y="150.404719" style="fill: #9e9e9e; fill-opacity: 0.9; stroke: #ffffff; stroke-opacity: 0.9; stroke-width: 0.45"/>
     <use xlink:href="#mbf33d94de4" x="343.00742" y="232.89004" style="fill: #9e9e9e; fill-opacity: 0.9; stroke: #ffffff; stroke-opacity: 0.9; stroke-width: 0.45"/>
     <use xlink:href="#mbf33d94de4" x="138.889035" y="191.106894" style="fill: #9e9e9e; fill-opacity: 0.9; stroke: #ffffff; stroke-opacity: 0.9; stroke-width: 0.45"/>
     <use xlink:href="#mbf33d94de4" x="148.397616" y="226.616963" style="fill: #9e9e9e; fill-opacity: 0.9; stroke: #ffffff; stroke-opacity: 0.9; stroke-width: 0.45"/>
     <use xlink:href="#mbf33d94de4" x="94.091101" y="211.291888" style="fill: #9e9e9e; fill-opacity: 0.9; stroke: #ffffff; stroke-opacity: 0.9; stroke-width: 0.45"/>
     <use xlink:href="#mbf33d94de4" x="137.434879" y="127.768721" style="fill: #9e9e9e; fill-opacity: 0.9; stroke: #ffffff; stroke-opacity: 0.9; stroke-width: 0.45"/>
     <use xlink:href="#mbf33d94de4" x="383.526888" y="144.258538" style="fill: #9e9e9e; fill-opacity: 0.9; stroke: #ffffff; stroke-opacity: 0.9; stroke-width: 0.45"/>
     <use xlink:href="#mbf33d94de4" x="329.166329" y="44.381875" style="fill: #9e9e9e; fill-opacity: 0.9; stroke: #ffffff; stroke-opacity: 0.9; stroke-width: 0.45"/>
     <use xlink:href="#mbf33d94de4" x="326.84742" y="160.035314" style="fill: #9e9e9e; fill-opacity: 0.9; stroke: #ffffff; stroke-opacity: 0.9; stroke-width: 0.45"/>
     <use xlink:href="#mbf33d94de4" x="359.175871" y="146.294653" style="fill: #9e9e9e; fill-opacity: 0.9; stroke: #ffffff; stroke-opacity: 0.9; stroke-width: 0.45"/>
     <use xlink:href="#mbf33d94de4" x="145.478721" y="186.237682" style="fill: #9e9e9e; fill-opacity: 0.9; stroke: #ffffff; stroke-opacity: 0.9; stroke-width: 0.45"/>
     <use xlink:href="#mbf33d94de4" x="353.381134" y="204.394485" style="fill: #9e9e9e; fill-opacity: 0.9; stroke: #ffffff; stroke-opacity: 0.9; stroke-width: 0.45"/>
     <use xlink:href="#mbf33d94de4" x="346.867755" y="215.360111" style="fill: #9e9e9e; fill-opacity: 0.9; stroke: #ffffff; stroke-opacity: 0.9; stroke-width: 0.45"/>
     <use xlink:href="#mbf33d94de4" x="236.890089" y="231.438234" style="fill: #9e9e9e; fill-opacity: 0.9; stroke: #ffffff; stroke-opacity: 0.9; stroke-width: 0.45"/>
     <use xlink:href="#mbf33d94de4" x="101.518866" y="154.301269" style="fill: #9e9e9e; fill-opacity: 0.9; stroke: #ffffff; stroke-opacity: 0.9; stroke-width: 0.45"/>
     <use xlink:href="#mbf33d94de4" x="380.337536" y="185.942433" style="fill: #9e9e9e; fill-opacity: 0.9; stroke: #ffffff; stroke-opacity: 0.9; stroke-width: 0.45"/>
     <use xlink:href="#mbf33d94de4" x="200.855661" y="232.436072" style="fill: #9e9e9e; fill-opacity: 0.9; stroke: #ffffff; stroke-opacity: 0.9; stroke-width: 0.45"/>
     <use xlink:href="#mbf33d94de4" x="383.360977" y="154.807726" style="fill: #9e9e9e; fill-opacity: 0.9; stroke: #ffffff; stroke-opacity: 0.9; stroke-width: 0.45"/>
     <use xlink:href="#mbf33d94de4" x="325.993441" y="114.112844" style="fill: #9e9e9e; fill-opacity: 0.9; stroke: #ffffff; stroke-opacity: 0.9; stroke-width: 0.45"/>
     <use xlink:href="#mbf33d94de4" x="185.785848" y="253.037324" style="fill: #9e9e9e; fill-opacity: 0.9; stroke: #ffffff; stroke-opacity: 0.9; stroke-width: 0.45"/>
     <use xlink:href="#mbf33d94de4" x="189.064773" y="141.885778" style="fill: #9e9e9e; fill-opacity: 0.9; stroke: #ffffff; stroke-opacity: 0.9; stroke-width: 0.45"/>
     <use xlink:href="#mbf33d94de4" x="118.348383" y="159.494177" style="fill: #9e9e9e; fill-opacity: 0.9; stroke: #ffffff; stroke-opacity: 0.9; stroke-width: 0.45"/>
     <use xlink:href="#mbf33d94de4" x="106.447309" y="172.124807" style="fill: #9e9e9e; fill-opacity: 0.9; stroke: #ffffff; stroke-opacity: 0.9; stroke-width: 0.45"/>
     <use xlink:href="#mbf33d94de4" x="150.208001" y="212.287384" style="fill: #9e9e9e; fill-opacity: 0.9; stroke: #ffffff; stroke-opacity: 0.9; stroke-width: 0.45"/>
     <use xlink:href="#mbf33d94de4" x="101.795153" y="220.048186" style="fill: #9e9e9e; fill-opacity: 0.9; stroke: #ffffff; stroke-opacity: 0.9; stroke-width: 0.45"/>
     <use xlink:href="#mbf33d94de4" x="176.244009" y="159.711508" style="fill: #9e9e9e; fill-opacity: 0.9; stroke: #ffffff; stroke-opacity: 0.9; stroke-width: 0.45"/>
     <use xlink:href="#mbf33d94de4" x="252.710108" y="107.197436" style="fill: #9e9e9e; fill-opacity: 0.9; stroke: #ffffff; stroke-opacity: 0.9; stroke-width: 0.45"/>
     <use xlink:href="#mbf33d94de4" x="314.854978" y="95.366325" style="fill: #9e9e9e; fill-opacity: 0.9; stroke: #ffffff; stroke-opacity: 0.9; stroke-width: 0.45"/>
     <use xlink:href="#mbf33d94de4" x="297.001721" y="210.834129" style="fill: #9e9e9e; fill-opacity: 0.9; stroke: #ffffff; stroke-opacity: 0.9; stroke-width: 0.45"/>
     <use xlink:href="#mbf33d94de4" x="329.929828" y="180.023635" style="fill: #9e9e9e; fill-opacity: 0.9; stroke: #ffffff; stroke-opacity: 0.9; stroke-width: 0.45"/>
     <use xlink:href="#mbf33d94de4" x="307.195592" y="207.464117" style="fill: #9e9e9e; fill-opacity: 0.9; stroke: #ffffff; stroke-opacity: 0.9; stroke-width: 0.45"/>
     <use xlink:href="#mbf33d94de4" x="153.817617" y="209.888499" style="fill: #9e9e9e; fill-opacity: 0.9; stroke: #ffffff; stroke-opacity: 0.9; stroke-width: 0.45"/>
     <use xlink:href="#mbf33d94de4" x="176.957005" y="229.196974" style="fill: #9e9e9e; fill-opacity: 0.9; stroke: #ffffff; stroke-opacity: 0.9; stroke-width: 0.45"/>
     <use xlink:href="#mbf33d94de4" x="191.59179" y="206.015355" style="fill: #9e9e9e; fill-opacity: 0.9; stroke: #ffffff; stroke-opacity: 0.9; stroke-width: 0.45"/>
     <use xlink:href="#mbf33d94de4" x="294.392561" y="244.233998" style="fill: #9e9e9e; fill-opacity: 0.9; stroke: #ffffff; stroke-opacity: 0.9; stroke-width: 0.45"/>
     <use xlink:href="#mbf33d94de4" x="390.850196" y="174.566292" style="fill: #9e9e9e; fill-opacity: 0.9; stroke: #ffffff; stroke-opacity: 0.9; stroke-width: 0.45"/>
     <use xlink:href="#mbf33d94de4" x="335.814708" y="84.719304" style="fill: #9e9e9e; fill-opacity: 0.9; stroke: #ffffff; stroke-opacity: 0.9; stroke-width: 0.45"/>
     <use xlink:href="#mbf33d94de4" x="322.225687" y="57.996231" style="fill: #9e9e9e; fill-opacity: 0.9; stroke: #ffffff; stroke-opacity: 0.9; stroke-width: 0.45"/>
     <use xlink:href="#mbf33d94de4" x="322.387949" y="197.525704" style="fill: #9e9e9e; fill-opacity: 0.9; stroke: #ffffff; stroke-opacity: 0.9; stroke-width: 0.45"/>
     <use xlink:href="#mbf33d94de4" x="261.934009" y="264.99323" style="fill: #9e9e9e; fill-opacity: 0.9; stroke: #ffffff; stroke-opacity: 0.9; stroke-width: 0.45"/>
     <use xlink:href="#mbf33d94de4" x="237.609588" y="289.787229" style="fill: #9e9e9e; fill-opacity: 0.9; stroke: #ffffff; stroke-opacity: 0.9; stroke-width: 0.45"/>
     <use xlink:href="#mbf33d94de4" x="253.375057" y="269.218175" style="fill: #9e9e9e; fill-opacity: 0.9; stroke: #ffffff; stroke-opacity: 0.9; stroke-width: 0.45"/>
     <use xlink:href="#mbf33d94de4" x="284.222571" y="191.418156" style="fill: #9e9e9e; fill-opacity: 0.9; stroke: #ffffff; stroke-opacity: 0.9; stroke-width: 0.45"/>
     <use xlink:href="#mbf33d94de4" x="285.048291" y="222.944004" style="fill: #9e9e9e; fill-opacity: 0.9; stroke: #ffffff; stroke-opacity: 0.9; stroke-width: 0.45"/>
     <use xlink:href="#mbf33d94de4" x="216.615953" y="251.36617" style="fill: #9e9e9e; fill-opacity: 0.9; stroke: #ffffff; stroke-opacity: 0.9; stroke-width: 0.45"/>
     <use xlink:href="#mbf33d94de4" x="263.498732" y="260.368994" style="fill: #9e9e9e; fill-opacity: 0.9; stroke: #ffffff; stroke-opacity: 0.9; stroke-width: 0.45"/>
     <use xlink:href="#mbf33d94de4" x="172.692649" y="215.888504" style="fill: #9e9e9e; fill-opacity: 0.9; stroke: #ffffff; stroke-opacity: 0.9; stroke-width: 0.45"/>
     <use xlink:href="#mbf33d94de4" x="153.008063" y="122.657006" style="fill: #9e9e9e; fill-opacity: 0.9; stroke: #ffffff; stroke-opacity: 0.9; stroke-width: 0.45"/>
     <use xlink:href="#mbf33d94de4" x="362.146475" y="195.607538" style="fill: #9e9e9e; fill-opacity: 0.9; stroke: #ffffff; stroke-opacity: 0.9; stroke-width: 0.45"/>
     <use xlink:href="#mbf33d94de4" x="226.509763" y="215.581103" style="fill: #9e9e9e; fill-opacity: 0.9; stroke: #ffffff; stroke-opacity: 0.9; stroke-width: 0.45"/>
     <use xlink:href="#mbf33d94de4" x="88.732103" y="207.660716" style="fill: #9e9e9e; fill-opacity: 0.9; stroke: #ffffff; stroke-opacity: 0.9; stroke-width: 0.45"/>
     <use xlink:href="#mbf33d94de4" x="191.341814" y="152.314334" style="fill: #9e9e9e; fill-opacity: 0.9; stroke: #ffffff; stroke-opacity: 0.9; stroke-width: 0.45"/>
     <use xlink:href="#mbf33d94de4" x="103.289756" y="148.889379" style="fill: #9e9e9e; fill-opacity: 0.9; stroke: #ffffff; stroke-opacity: 0.9; stroke-width: 0.45"/>
     <use xlink:href="#mbf33d94de4" x="81.905454" y="141.242254" style="fill: #9e9e9e; fill-opacity: 0.9; stroke: #ffffff; stroke-opacity: 0.9; stroke-width: 0.45"/>
     <use xlink:href="#mbf33d94de4" x="259.781639" y="222.975164" style="fill: #9e9e9e; fill-opacity: 0.9; stroke: #ffffff; stroke-opacity: 0.9; stroke-width: 0.45"/>
     <use xlink:href="#mbf33d94de4" x="305.880299" y="179.298637" style="fill: #9e9e9e; fill-opacity: 0.9; stroke: #ffffff; stroke-opacity: 0.9; stroke-width: 0.45"/>
     <use xlink:href="#mbf33d94de4" x="198.449679" y="202.771112" style="fill: #9e9e9e; fill-opacity: 0.9; stroke: #ffffff; stroke-opacity: 0.9; stroke-width: 0.45"/>
     <use xlink:href="#mbf33d94de4" x="150.559199" y="178.351067" style="fill: #9e9e9e; fill-opacity: 0.9; stroke: #ffffff; stroke-opacity: 0.9; stroke-width: 0.45"/>
     <use xlink:href="#mbf33d94de4" x="328.977458" y="193.073778" style="fill: #9e9e9e; fill-opacity: 0.9; stroke: #ffffff; stroke-opacity: 0.9; stroke-width: 0.45"/>
     <use xlink:href="#mbf33d94de4" x="139.820291" y="155.362099" style="fill: #9e9e9e; fill-opacity: 0.9; stroke: #ffffff; stroke-opacity: 0.9; stroke-width: 0.45"/>
     <use xlink:href="#mbf33d94de4" x="221.16565" y="197.75111" style="fill: #9e9e9e; fill-opacity: 0.9; stroke: #ffffff; stroke-opacity: 0.9; stroke-width: 0.45"/>
     <use xlink:href="#mbf33d94de4" x="243.66201" y="215.864496" style="fill: #9e9e9e; fill-opacity: 0.9; stroke: #ffffff; stroke-opacity: 0.9; stroke-width: 0.45"/>
     <use xlink:href="#mbf33d94de4" x="230.256847" y="215.473556" style="fill: #9e9e9e; fill-opacity: 0.9; stroke: #ffffff; stroke-opacity: 0.9; stroke-width: 0.45"/>
     <use xlink:href="#mbf33d94de4" x="144.120069" y="175.245008" style="fill: #9e9e9e; fill-opacity: 0.9; stroke: #ffffff; stroke-opacity: 0.9; stroke-width: 0.45"/>
     <use xlink:href="#mbf33d94de4" x="209.264087" y="214.1579" style="fill: #9e9e9e; fill-opacity: 0.9; stroke: #ffffff; stroke-opacity: 0.9; stroke-width: 0.45"/>
     <use xlink:href="#mbf33d94de4" x="98.542476" y="193.985474" style="fill: #9e9e9e; fill-opacity: 0.9; stroke: #ffffff; stroke-opacity: 0.9; stroke-width: 0.45"/>
     <use xlink:href="#mbf33d94de4" x="292.906853" y="187.17802" style="fill: #9e9e9e; fill-opacity: 0.9; stroke: #ffffff; stroke-opacity: 0.9; stroke-width: 0.45"/>
     <use xlink:href="#mbf33d94de4" x="228.853194" y="203.538915" style="fill: #9e9e9e; fill-opacity: 0.9; stroke: #ffffff; stroke-opacity: 0.9; stroke-width: 0.45"/>
     <use xlink:href="#mbf33d94de4" x="128.985549" y="151.204078" style="fill: #9e9e9e; fill-opacity: 0.9; stroke: #ffffff; stroke-opacity: 0.9; stroke-width: 0.45"/>
     <use xlink:href="#mbf33d94de4" x="182.580965" y="84.436568" style="fill: #9e9e9e; fill-opacity: 0.9; stroke: #ffffff; stroke-opacity: 0.9; stroke-width: 0.45"/>
     <use xlink:href="#mbf33d94de4" x="133.848884" y="145.60233" style="fill: #9e9e9e; fill-opacity: 0.9; stroke: #ffffff; stroke-opacity: 0.9; stroke-width: 0.45"/>
    </g>
   </g>
   <g id="PathCollection_2">
    <defs>
     <path id="m79dbe9754b" d="M 0 3.741657 
C 0.992299 3.741657 1.94409 3.347413 2.645751 2.645751 
C 3.347413 1.94409 3.741657 0.992299 3.741657 0 
C 3.741657 -0.992299 3.347413 -1.94409 2.645751 -2.645751 
C 1.94409 -3.347413 0.992299 -3.741657 0 -3.741657 
C -0.992299 -3.741657 -1.94409 -3.347413 -2.645751 -2.645751 
C -3.347413 -1.94409 -3.741657 -0.992299 -3.741657 0 
C -3.741657 0.992299 -3.347413 1.94409 -2.645751 2.645751 
C -1.94409 3.347413 -0.992299 3.741657 0 3.741657 
z
" style="stroke: #ffffff; stroke-opacity: 0.9; stroke-width: 0.45"/>
    </defs>
    <g clip-path="url(#pe5f1491c98)">
     <use xlink:href="#m79dbe9754b" x="256.237879" y="73.278366" style="fill: #1b9e77; fill-opacity: 0.9; stroke: #ffffff; stroke-opacity: 0.9; stroke-width: 0.45"/>
     <use xlink:href="#m79dbe9754b" x="356.552341" y="73.977314" style="fill: #1b9e77; fill-opacity: 0.9; stroke: #ffffff; stroke-opacity: 0.9; stroke-width: 0.45"/>
     <use xlink:href="#m79dbe9754b" x="303.976135" y="61.619966" style="fill: #1b9e77; fill-opacity: 0.9; stroke: #ffffff; stroke-opacity: 0.9; stroke-width: 0.45"/>
     <use xlink:href="#m79dbe9754b" x="300.229793" y="75.859255" style="fill: #1b9e77; fill-opacity: 0.9; stroke: #ffffff; stroke-opacity: 0.9; stroke-width: 0.45"/>
     <use xlink:href="#m79dbe9754b" x="273.845355" y="200.063206" style="fill: #1b9e77; fill-opacity: 0.9; stroke: #ffffff; stroke-opacity: 0.9; stroke-width: 0.45"/>
     <use xlink:href="#m79dbe9754b" x="322.234982" y="117.348882" style="fill: #1b9e77; fill-opacity: 0.9; stroke: #ffffff; stroke-opacity: 0.9; stroke-width: 0.45"/>
     <use xlink:href="#m79dbe9754b" x="343.572277" y="122.524543" style="fill: #1b9e77; fill-opacity: 0.9; stroke: #ffffff; stroke-opacity: 0.9; stroke-width: 0.45"/>
     <use xlink:href="#m79dbe9754b" x="321.527074" y="60.015681" style="fill: #1b9e77; fill-opacity: 0.9; stroke: #ffffff; stroke-opacity: 0.9; stroke-width: 0.45"/>
     <use xlink:href="#m79dbe9754b" x="331.356823" y="56.930636" style="fill: #1b9e77; fill-opacity: 0.9; stroke: #ffffff; stroke-opacity: 0.9; stroke-width: 0.45"/>
     <use xlink:href="#m79dbe9754b" x="277.882442" y="164.898368" style="fill: #1b9e77; fill-opacity: 0.9; stroke: #ffffff; stroke-opacity: 0.9; stroke-width: 0.45"/>
     <use xlink:href="#m79dbe9754b" x="56.9725" y="145.485123" style="fill: #1b9e77; fill-opacity: 0.9; stroke: #ffffff; stroke-opacity: 0.9; stroke-width: 0.45"/>
     <use xlink:href="#m79dbe9754b" x="276.79596" y="161.337951" style="fill: #1b9e77; fill-opacity: 0.9; stroke: #ffffff; stroke-opacity: 0.9; stroke-width: 0.45"/>
     <use xlink:href="#m79dbe9754b" x="286.533454" y="162.72677" style="fill: #1b9e77; fill-opacity: 0.9; stroke: #ffffff; stroke-opacity: 0.9; stroke-width: 0.45"/>
     <use xlink:href="#m79dbe9754b" x="285.610217" y="67.627208" style="fill: #1b9e77; fill-opacity: 0.9; stroke: #ffffff; stroke-opacity: 0.9; stroke-width: 0.45"/>
     <use xlink:href="#m79dbe9754b" x="298.833373" y="125.281066" style="fill: #1b9e77; fill-opacity: 0.9; stroke: #ffffff; stroke-opacity: 0.9; stroke-width: 0.45"/>
     <use xlink:href="#m79dbe9754b" x="353.450925" y="162.360525" style="fill: #1b9e77; fill-opacity: 0.9; stroke: #ffffff; stroke-opacity: 0.9; stroke-width: 0.45"/>
     <use xlink:href="#m79dbe9754b" x="154.964665" y="94.349298" style="fill: #1b9e77; fill-opacity: 0.9; stroke: #ffffff; stroke-opacity: 0.9; stroke-width: 0.45"/>
     <use xlink:href="#m79dbe9754b" x="223.653419" y="71.334296" style="fill: #1b9e77; fill-opacity: 0.9; stroke: #ffffff; stroke-opacity: 0.9; stroke-width: 0.45"/>
     <use xlink:href="#m79dbe9754b" x="299.10065" y="48.919342" style="fill: #1b9e77; fill-opacity: 0.9; stroke: #ffffff; stroke-opacity: 0.9; stroke-width: 0.45"/>
     <use xlink:href="#m79dbe9754b" x="270.605602" y="102.987381" style="fill: #1b9e77; fill-opacity: 0.9; stroke: #ffffff; stroke-opacity: 0.9; stroke-width: 0.45"/>
     <use xlink:href="#m79dbe9754b" x="302.589149" y="185.781718" style="fill: #1b9e77; fill-opacity: 0.9; stroke: #ffffff; stroke-opacity: 0.9; stroke-width: 0.45"/>
     <use xlink:href="#m79dbe9754b" x="214.50099" y="266.783366" style="fill: #1b9e77; fill-opacity: 0.9; stroke: #ffffff; stroke-opacity: 0.9; stroke-width: 0.45"/>
     <use xlink:href="#m79dbe9754b" x="65.319498" y="144.491182" style="fill: #1b9e77; fill-opacity: 0.9; stroke: #ffffff; stroke-opacity: 0.9; stroke-width: 0.45"/>
     <use xlink:href="#m79dbe9754b" x="67.542769" y="153.061258" style="fill: #1b9e77; fill-opacity: 0.9; stroke: #ffffff; stroke-opacity: 0.9; stroke-width: 0.45"/>
     <use xlink:href="#m79dbe9754b" x="292.542015" y="144.52179" style="fill: #1b9e77; fill-opacity: 0.9; stroke: #ffffff; stroke-opacity: 0.9; stroke-width: 0.45"/>
     <use xlink:href="#m79dbe9754b" x="209.395585" y="119.295139" style="fill: #1b9e77; fill-opacity: 0.9; stroke: #ffffff; stroke-opacity: 0.9; stroke-width: 0.45"/>
     <use xlink:href="#m79dbe9754b" x="284.48443" y="106.226023" style="fill: #1b9e77; fill-opacity: 0.9; stroke: #ffffff; stroke-opacity: 0.9; stroke-width: 0.45"/>
     <use xlink:href="#m79dbe9754b" x="216.258081" y="77.098699" style="fill: #1b9e77; fill-opacity: 0.9; stroke: #ffffff; stroke-opacity: 0.9; stroke-width: 0.45"/>
     <use xlink:href="#m79dbe9754b" x="142.395615" y="90.717589" style="fill: #1b9e77; fill-opacity: 0.9; stroke: #ffffff; stroke-opacity: 0.9; stroke-width: 0.45"/>
     <use xlink:href="#m79dbe9754b" x="318.496546" y="176.485887" style="fill: #1b9e77; fill-opacity: 0.9; stroke: #ffffff; stroke-opacity: 0.9; stroke-width: 0.45"/>
     <use xlink:href="#m79dbe9754b" x="292.644829" y="77.14494" style="fill: #1b9e77; fill-opacity: 0.9; stroke: #ffffff; stroke-opacity: 0.9; stroke-width: 0.45"/>
     <use xlink:href="#m79dbe9754b" x="316.572263" y="60.398797" style="fill: #1b9e77; fill-opacity: 0.9; stroke: #ffffff; stroke-opacity: 0.9; stroke-width: 0.45"/>
     <use xlink:href="#m79dbe9754b" x="228.069449" y="269.284994" style="fill: #1b9e77; fill-opacity: 0.9; stroke: #ffffff; stroke-opacity: 0.9; stroke-width: 0.45"/>
     <use xlink:href="#m79dbe9754b" x="312.677059" y="253.068584" style="fill: #1b9e77; fill-opacity: 0.9; stroke: #ffffff; stroke-opacity: 0.9; stroke-width: 0.45"/>
     <use xlink:href="#m79dbe9754b" x="234.638851" y="262.943905" style="fill: #1b9e77; fill-opacity: 0.9; stroke: #ffffff; stroke-opacity: 0.9; stroke-width: 0.45"/>
     <use xlink:href="#m79dbe9754b" x="248.97584" y="189.341031" style="fill: #1b9e77; fill-opacity: 0.9; stroke: #ffffff; stroke-opacity: 0.9; stroke-width: 0.45"/>
     <use xlink:href="#m79dbe9754b" x="82.125306" y="138.836343" style="fill: #1b9e77; fill-opacity: 0.9; stroke: #ffffff; stroke-opacity: 0.9; stroke-width: 0.45"/>
     <use xlink:href="#m79dbe9754b" x="247.788118" y="238.769568" style="fill: #1b9e77; fill-opacity: 0.9; stroke: #ffffff; stroke-opacity: 0.9; stroke-width: 0.45"/>
     <use xlink:href="#m79dbe9754b" x="309.178999" y="104.267599" style="fill: #1b9e77; fill-opacity: 0.9; stroke: #ffffff; stroke-opacity: 0.9; stroke-width: 0.45"/>
     <use xlink:href="#m79dbe9754b" x="95.135544" y="146.261553" style="fill: #1b9e77; fill-opacity: 0.9; stroke: #ffffff; stroke-opacity: 0.9; stroke-width: 0.45"/>
     <use xlink:href="#m79dbe9754b" x="277.611104" y="79.608" style="fill: #1b9e77; fill-opacity: 0.9; stroke: #ffffff; stroke-opacity: 0.9; stroke-width: 0.45"/>
     <use xlink:href="#m79dbe9754b" x="106.959887" y="185.980734" style="fill: #1b9e77; fill-opacity: 0.9; stroke: #ffffff; stroke-opacity: 0.9; stroke-width: 0.45"/>
     <use xlink:href="#m79dbe9754b" x="239.964604" y="292.52492" style="fill: #1b9e77; fill-opacity: 0.9; stroke: #ffffff; stroke-opacity: 0.9; stroke-width: 0.45"/>
     <use xlink:href="#m79dbe9754b" x="254.788887" y="283.452956" style="fill: #1b9e77; fill-opacity: 0.9; stroke: #ffffff; stroke-opacity: 0.9; stroke-width: 0.45"/>
     <use xlink:href="#m79dbe9754b" x="96.329255" y="167.876436" style="fill: #1b9e77; fill-opacity: 0.9; stroke: #ffffff; stroke-opacity: 0.9; stroke-width: 0.45"/>
     <use xlink:href="#m79dbe9754b" x="245.633629" y="296.381875" style="fill: #1b9e77; fill-opacity: 0.9; stroke: #ffffff; stroke-opacity: 0.9; stroke-width: 0.45"/>
     <use xlink:href="#m79dbe9754b" x="233.169753" y="278.807224" style="fill: #1b9e77; fill-opacity: 0.9; stroke: #ffffff; stroke-opacity: 0.9; stroke-width: 0.45"/>
     <use xlink:href="#m79dbe9754b" x="315.316102" y="219.095701" style="fill: #1b9e77; fill-opacity: 0.9; stroke: #ffffff; stroke-opacity: 0.9; stroke-width: 0.45"/>
     <use xlink:href="#m79dbe9754b" x="245.787269" y="284.91898" style="fill: #1b9e77; fill-opacity: 0.9; stroke: #ffffff; stroke-opacity: 0.9; stroke-width: 0.45"/>
     <use xlink:href="#m79dbe9754b" x="328.295036" y="75.649" style="fill: #1b9e77; fill-opacity: 0.9; stroke: #ffffff; stroke-opacity: 0.9; stroke-width: 0.45"/>
     <use xlink:href="#m79dbe9754b" x="229.191042" y="163.63992" style="fill: #1b9e77; fill-opacity: 0.9; stroke: #ffffff; stroke-opacity: 0.9; stroke-width: 0.45"/>
     <use xlink:href="#m79dbe9754b" x="246.125289" y="185.224998" style="fill: #1b9e77; fill-opacity: 0.9; stroke: #ffffff; stroke-opacity: 0.9; stroke-width: 0.45"/>
     <use xlink:href="#m79dbe9754b" x="121.968924" y="113.20374" style="fill: #1b9e77; fill-opacity: 0.9; stroke: #ffffff; stroke-opacity: 0.9; stroke-width: 0.45"/>
     <use xlink:href="#m79dbe9754b" x="236.303559" y="92.489314" style="fill: #1b9e77; fill-opacity: 0.9; stroke: #ffffff; stroke-opacity: 0.9; stroke-width: 0.45"/>
     <use xlink:href="#m79dbe9754b" x="191.185902" y="256.874147" style="fill: #1b9e77; fill-opacity: 0.9; stroke: #ffffff; stroke-opacity: 0.9; stroke-width: 0.45"/>
     <use xlink:href="#m79dbe9754b" x="285.404222" y="273.048233" style="fill: #1b9e77; fill-opacity: 0.9; stroke: #ffffff; stroke-opacity: 0.9; stroke-width: 0.45"/>
     <use xlink:href="#m79dbe9754b" x="242.541394" y="117.841788" style="fill: #1b9e77; fill-opacity: 0.9; stroke: #ffffff; stroke-opacity: 0.9; stroke-width: 0.45"/>
     <use xlink:href="#m79dbe9754b" x="259.00335" y="95.503492" style="fill: #1b9e77; fill-opacity: 0.9; stroke: #ffffff; stroke-opacity: 0.9; stroke-width: 0.45"/>
     <use xlink:href="#m79dbe9754b" x="310.055584" y="267.50205" style="fill: #1b9e77; fill-opacity: 0.9; stroke: #ffffff; stroke-opacity: 0.9; stroke-width: 0.45"/>
     <use xlink:href="#m79dbe9754b" x="152.861884" y="98.055313" style="fill: #1b9e77; fill-opacity: 0.9; stroke: #ffffff; stroke-opacity: 0.9; stroke-width: 0.45"/>
    </g>
   </g>
   <g id="matplotlib.axis_1">
    <g id="xtick_1">
     <g id="line2d_1">
      <path d="M 100.377941 308.981875 
L 100.377941 31.781875 
" clip-path="url(#pe5f1491c98)" style="fill: none; stroke-dasharray: 1.85,0.8; stroke-dashoffset: 0; stroke: #b0b0b0; stroke-opacity: 0.2; stroke-width: 0.5"/>
     </g>
     <g id="line2d_2">
      <defs>
       <path id="md0eede7999" d="M 0 0 
L 0 3.5 
" style="stroke: #000000; stroke-width: 0.8"/>
      </defs>
      <g>
       <use xlink:href="#md0eede7999" x="100.377941" y="308.981875" style="stroke: #000000; stroke-width: 0.8"/>
      </g>
     </g>
     <g id="text_1">
      <!-- 2 -->
      <g transform="translate(96.627941 326.3975) scale(0.15 -0.15)">
       <defs>
        <path id="TimesNewRomanPSMT-32" d="M 2934 816 
L 2638 0 
L 138 0 
L 138 116 
Q 1241 1122 1691 1759 
Q 2141 2397 2141 2925 
Q 2141 3328 1894 3587 
Q 1647 3847 1303 3847 
Q 991 3847 742 3664 
Q 494 3481 375 3128 
L 259 3128 
Q 338 3706 661 4015 
Q 984 4325 1469 4325 
Q 1984 4325 2329 3994 
Q 2675 3663 2675 3213 
Q 2675 2891 2525 2569 
Q 2294 2063 1775 1497 
Q 997 647 803 472 
L 1909 472 
Q 2247 472 2383 497 
Q 2519 522 2628 598 
Q 2738 675 2819 816 
L 2934 816 
z
" transform="scale(0.015625)"/>
       </defs>
       <use xlink:href="#TimesNewRomanPSMT-32"/>
      </g>
     </g>
    </g>
    <g id="xtick_2">
     <g id="line2d_3">
      <path d="M 163.823638 308.981875 
L 163.823638 31.781875 
" clip-path="url(#pe5f1491c98)" style="fill: none; stroke-dasharray: 1.85,0.8; stroke-dashoffset: 0; stroke: #b0b0b0; stroke-opacity: 0.2; stroke-width: 0.5"/>
     </g>
     <g id="line2d_4">
      <g>
       <use xlink:href="#md0eede7999" x="163.823638" y="308.981875" style="stroke: #000000; stroke-width: 0.8"/>
      </g>
     </g>
     <g id="text_2">
      <!-- 3 -->
      <g transform="translate(160.073638 326.3975) scale(0.15 -0.15)">
       <defs>
        <path id="TimesNewRomanPSMT-33" d="M 325 3431 
Q 506 3859 782 4092 
Q 1059 4325 1472 4325 
Q 1981 4325 2253 3994 
Q 2459 3747 2459 3466 
Q 2459 3003 1878 2509 
Q 2269 2356 2469 2072 
Q 2669 1788 2669 1403 
Q 2669 853 2319 450 
Q 1863 -75 997 -75 
Q 569 -75 414 31 
Q 259 138 259 259 
Q 259 350 332 419 
Q 406 488 509 488 
Q 588 488 669 463 
Q 722 447 909 348 
Q 1097 250 1169 231 
Q 1284 197 1416 197 
Q 1734 197 1970 444 
Q 2206 691 2206 1028 
Q 2206 1275 2097 1509 
Q 2016 1684 1919 1775 
Q 1784 1900 1550 2001 
Q 1316 2103 1072 2103 
L 972 2103 
L 972 2197 
Q 1219 2228 1467 2375 
Q 1716 2522 1828 2728 
Q 1941 2934 1941 3181 
Q 1941 3503 1739 3701 
Q 1538 3900 1238 3900 
Q 753 3900 428 3381 
L 325 3431 
z
" transform="scale(0.015625)"/>
       </defs>
       <use xlink:href="#TimesNewRomanPSMT-33"/>
      </g>
     </g>
    </g>
    <g id="xtick_3">
     <g id="line2d_5">
      <path d="M 227.269335 308.981875 
L 227.269335 31.781875 
" clip-path="url(#pe5f1491c98)" style="fill: none; stroke-dasharray: 1.85,0.8; stroke-dashoffset: 0; stroke: #b0b0b0; stroke-opacity: 0.2; stroke-width: 0.5"/>
     </g>
     <g id="line2d_6">
      <g>
       <use xlink:href="#md0eede7999" x="227.269335" y="308.981875" style="stroke: #000000; stroke-width: 0.8"/>
      </g>
     </g>
     <g id="text_3">
      <!-- 4 -->
      <g transform="translate(223.519335 326.3975) scale(0.15 -0.15)">
       <defs>
        <path id="TimesNewRomanPSMT-34" d="M 2978 1563 
L 2978 1119 
L 2409 1119 
L 2409 0 
L 1894 0 
L 1894 1119 
L 100 1119 
L 100 1519 
L 2066 4325 
L 2409 4325 
L 2409 1563 
L 2978 1563 
z
M 1894 1563 
L 1894 3666 
L 406 1563 
L 1894 1563 
z
" transform="scale(0.015625)"/>
       </defs>
       <use xlink:href="#TimesNewRomanPSMT-34"/>
      </g>
     </g>
    </g>
    <g id="xtick_4">
     <g id="line2d_7">
      <path d="M 290.715033 308.981875 
L 290.715033 31.781875 
" clip-path="url(#pe5f1491c98)" style="fill: none; stroke-dasharray: 1.85,0.8; stroke-dashoffset: 0; stroke: #b0b0b0; stroke-opacity: 0.2; stroke-width: 0.5"/>
     </g>
     <g id="line2d_8">
      <g>
       <use xlink:href="#md0eede7999" x="290.715033" y="308.981875" style="stroke: #000000; stroke-width: 0.8"/>
      </g>
     </g>
     <g id="text_4">
      <!-- 5 -->
      <g transform="translate(286.965033 326.3975) scale(0.15 -0.15)">
       <defs>
        <path id="TimesNewRomanPSMT-35" d="M 2778 4238 
L 2534 3706 
L 1259 3706 
L 981 3138 
Q 1809 3016 2294 2522 
Q 2709 2097 2709 1522 
Q 2709 1188 2573 903 
Q 2438 619 2231 419 
Q 2025 219 1772 97 
Q 1413 -75 1034 -75 
Q 653 -75 479 54 
Q 306 184 306 341 
Q 306 428 378 495 
Q 450 563 559 563 
Q 641 563 702 538 
Q 763 513 909 409 
Q 1144 247 1384 247 
Q 1750 247 2026 523 
Q 2303 800 2303 1197 
Q 2303 1581 2056 1914 
Q 1809 2247 1375 2428 
Q 1034 2569 447 2591 
L 1259 4238 
L 2778 4238 
z
" transform="scale(0.015625)"/>
       </defs>
       <use xlink:href="#TimesNewRomanPSMT-35"/>
      </g>
     </g>
    </g>
    <g id="xtick_5">
     <g id="line2d_9">
      <path d="M 354.16073 308.981875 
L 354.16073 31.781875 
" clip-path="url(#pe5f1491c98)" style="fill: none; stroke-dasharray: 1.85,0.8; stroke-dashoffset: 0; stroke: #b0b0b0; stroke-opacity: 0.2; stroke-width: 0.5"/>
     </g>
     <g id="line2d_10">
      <g>
       <use xlink:href="#md0eede7999" x="354.16073" y="308.981875" style="stroke: #000000; stroke-width: 0.8"/>
      </g>
     </g>
     <g id="text_5">
      <!-- 6 -->
      <g transform="translate(350.41073 326.3975) scale(0.15 -0.15)">
       <defs>
        <path id="TimesNewRomanPSMT-36" d="M 2869 4325 
L 2869 4209 
Q 2456 4169 2195 4045 
Q 1934 3922 1679 3669 
Q 1425 3416 1258 3105 
Q 1091 2794 978 2366 
Q 1428 2675 1881 2675 
Q 2316 2675 2634 2325 
Q 2953 1975 2953 1425 
Q 2953 894 2631 456 
Q 2244 -75 1606 -75 
Q 1172 -75 869 213 
Q 275 772 275 1663 
Q 275 2231 503 2743 
Q 731 3256 1154 3653 
Q 1578 4050 1965 4187 
Q 2353 4325 2688 4325 
L 2869 4325 
z
M 925 2138 
Q 869 1716 869 1456 
Q 869 1156 980 804 
Q 1091 453 1309 247 
Q 1469 100 1697 100 
Q 1969 100 2183 356 
Q 2397 613 2397 1088 
Q 2397 1622 2184 2012 
Q 1972 2403 1581 2403 
Q 1463 2403 1327 2353 
Q 1191 2303 925 2138 
z
" transform="scale(0.015625)"/>
       </defs>
       <use xlink:href="#TimesNewRomanPSMT-36"/>
      </g>
     </g>
    </g>
    <g id="text_6">
     <!-- UMAP 1 -->
     <g transform="translate(195.555 344.716094) scale(0.16 -0.16)">
      <defs>
       <path id="TimesNewRomanPSMT-55" d="M 3053 4122 
L 3053 4238 
L 4553 4238 
L 4553 4122 
L 4394 4122 
Q 4144 4122 4009 3913 
Q 3944 3816 3944 3463 
L 3944 1744 
Q 3944 1106 3817 754 
Q 3691 403 3320 151 
Q 2950 -100 2313 -100 
Q 1619 -100 1259 140 
Q 900 381 750 788 
Q 650 1066 650 1831 
L 650 3488 
Q 650 3878 542 4000 
Q 434 4122 194 4122 
L 34 4122 
L 34 4238 
L 1866 4238 
L 1866 4122 
L 1703 4122 
Q 1441 4122 1328 3956 
Q 1250 3844 1250 3488 
L 1250 1641 
Q 1250 1394 1295 1075 
Q 1341 756 1459 578 
Q 1578 400 1801 284 
Q 2025 169 2350 169 
Q 2766 169 3094 350 
Q 3422 531 3542 814 
Q 3663 1097 3663 1772 
L 3663 3488 
Q 3663 3884 3575 3984 
Q 3453 4122 3213 4122 
L 3053 4122 
z
" transform="scale(0.015625)"/>
       <path id="TimesNewRomanPSMT-4d" d="M 2619 0 
L 981 3566 
L 981 734 
Q 981 344 1066 247 
Q 1181 116 1431 116 
L 1581 116 
L 1581 0 
L 106 0 
L 106 116 
L 256 116 
Q 525 116 638 278 
Q 706 378 706 734 
L 706 3503 
Q 706 3784 644 3909 
Q 600 4000 483 4061 
Q 366 4122 106 4122 
L 106 4238 
L 1306 4238 
L 2844 922 
L 4356 4238 
L 5556 4238 
L 5556 4122 
L 5409 4122 
Q 5138 4122 5025 3959 
Q 4956 3859 4956 3503 
L 4956 734 
Q 4956 344 5044 247 
Q 5159 116 5409 116 
L 5556 116 
L 5556 0 
L 3756 0 
L 3756 116 
L 3906 116 
Q 4178 116 4288 278 
Q 4356 378 4356 734 
L 4356 3566 
L 2722 0 
L 2619 0 
z
" transform="scale(0.015625)"/>
       <path id="TimesNewRomanPSMT-41" d="M 2928 1419 
L 1288 1419 
L 1000 750 
Q 894 503 894 381 
Q 894 284 986 211 
Q 1078 138 1384 116 
L 1384 0 
L 50 0 
L 50 116 
Q 316 163 394 238 
Q 553 388 747 847 
L 2238 4334 
L 2347 4334 
L 3822 809 
Q 4000 384 4145 257 
Q 4291 131 4550 116 
L 4550 0 
L 2878 0 
L 2878 116 
Q 3131 128 3220 200 
Q 3309 272 3309 375 
Q 3309 513 3184 809 
L 2928 1419 
z
M 2841 1650 
L 2122 3363 
L 1384 1650 
L 2841 1650 
z
" transform="scale(0.015625)"/>
       <path id="TimesNewRomanPSMT-50" d="M 1313 1984 
L 1313 750 
Q 1313 350 1400 253 
Q 1519 116 1759 116 
L 1922 116 
L 1922 0 
L 106 0 
L 106 116 
L 266 116 
Q 534 116 650 291 
Q 713 388 713 750 
L 713 3488 
Q 713 3888 628 3984 
Q 506 4122 266 4122 
L 106 4122 
L 106 4238 
L 1659 4238 
Q 2228 4238 2556 4120 
Q 2884 4003 3109 3725 
Q 3334 3447 3334 3066 
Q 3334 2547 2992 2222 
Q 2650 1897 2025 1897 
Q 1872 1897 1694 1919 
Q 1516 1941 1313 1984 
z
M 1313 2163 
Q 1478 2131 1606 2115 
Q 1734 2100 1825 2100 
Q 2150 2100 2386 2351 
Q 2622 2603 2622 3003 
Q 2622 3278 2509 3514 
Q 2397 3750 2190 3867 
Q 1984 3984 1722 3984 
Q 1563 3984 1313 3925 
L 1313 2163 
z
" transform="scale(0.015625)"/>
       <path id="TimesNewRomanPSMT-20" transform="scale(0.015625)"/>
       <path id="TimesNewRomanPSMT-31" d="M 750 3822 
L 1781 4325 
L 1884 4325 
L 1884 747 
Q 1884 391 1914 303 
Q 1944 216 2037 169 
Q 2131 122 2419 116 
L 2419 0 
L 825 0 
L 825 116 
Q 1125 122 1212 167 
Q 1300 213 1334 289 
Q 1369 366 1369 747 
L 1369 3034 
Q 1369 3497 1338 3628 
Q 1316 3728 1258 3775 
Q 1200 3822 1119 3822 
Q 1003 3822 797 3725 
L 750 3822 
z
" transform="scale(0.015625)"/>
      </defs>
      <use xlink:href="#TimesNewRomanPSMT-55"/>
      <use xlink:href="#TimesNewRomanPSMT-4d" transform="translate(72.216797 0)"/>
      <use xlink:href="#TimesNewRomanPSMT-41" transform="translate(161.132812 0)"/>
      <use xlink:href="#TimesNewRomanPSMT-50" transform="translate(233.349609 0)"/>
      <use xlink:href="#TimesNewRomanPSMT-20" transform="translate(285.214844 0)"/>
      <use xlink:href="#TimesNewRomanPSMT-31" transform="translate(310.214844 0)"/>
     </g>
    </g>
   </g>
   <g id="matplotlib.axis_2">
    <g id="ytick_1">
     <g id="line2d_11">
      <path d="M 40.2325 268.511559 
L 408.5125 268.511559 
" clip-path="url(#pe5f1491c98)" style="fill: none; stroke-dasharray: 1.85,0.8; stroke-dashoffset: 0; stroke: #b0b0b0; stroke-opacity: 0.2; stroke-width: 0.5"/>
     </g>
     <g id="line2d_12">
      <defs>
       <path id="m9c10cff968" d="M 0 0 
L -3.5 0 
" style="stroke: #000000; stroke-width: 0.8"/>
      </defs>
      <g>
       <use xlink:href="#m9c10cff968" x="40.2325" y="268.511559" style="stroke: #000000; stroke-width: 0.8"/>
      </g>
     </g>
     <g id="text_7">
      <!-- 4 -->
      <g transform="translate(25.7325 273.719371) scale(0.15 -0.15)">
       <use xlink:href="#TimesNewRomanPSMT-34"/>
      </g>
     </g>
    </g>
    <g id="ytick_2">
     <g id="line2d_13">
      <path d="M 40.2325 218.358842 
L 408.5125 218.358842 
" clip-path="url(#pe5f1491c98)" style="fill: none; stroke-dasharray: 1.85,0.8; stroke-dashoffset: 0; stroke: #b0b0b0; stroke-opacity: 0.2; stroke-width: 0.5"/>
     </g>
     <g id="line2d_14">
      <g>
       <use xlink:href="#m9c10cff968" x="40.2325" y="218.358842" style="stroke: #000000; stroke-width: 0.8"/>
      </g>
     </g>
     <g id="text_8">
      <!-- 5 -->
      <g transform="translate(25.7325 223.566654) scale(0.15 -0.15)">
       <use xlink:href="#TimesNewRomanPSMT-35"/>
      </g>
     </g>
    </g>
    <g id="ytick_3">
     <g id="line2d_15">
      <path d="M 40.2325 168.206125 
L 408.5125 168.206125 
" clip-path="url(#pe5f1491c98)" style="fill: none; stroke-dasharray: 1.85,0.8; stroke-dashoffset: 0; stroke: #b0b0b0; stroke-opacity: 0.2; stroke-width: 0.5"/>
     </g>
     <g id="line2d_16">
      <g>
       <use xlink:href="#m9c10cff968" x="40.2325" y="168.206125" style="stroke: #000000; stroke-width: 0.8"/>
      </g>
     </g>
     <g id="text_9">
      <!-- 6 -->
      <g transform="translate(25.7325 173.413937) scale(0.15 -0.15)">
       <use xlink:href="#TimesNewRomanPSMT-36"/>
      </g>
     </g>
    </g>
    <g id="ytick_4">
     <g id="line2d_17">
      <path d="M 40.2325 118.053408 
L 408.5125 118.053408 
" clip-path="url(#pe5f1491c98)" style="fill: none; stroke-dasharray: 1.85,0.8; stroke-dashoffset: 0; stroke: #b0b0b0; stroke-opacity: 0.2; stroke-width: 0.5"/>
     </g>
     <g id="line2d_18">
      <g>
       <use xlink:href="#m9c10cff968" x="40.2325" y="118.053408" style="stroke: #000000; stroke-width: 0.8"/>
      </g>
     </g>
     <g id="text_10">
      <!-- 7 -->
      <g transform="translate(25.7325 123.26122) scale(0.15 -0.15)">
       <defs>
        <path id="TimesNewRomanPSMT-37" d="M 644 4238 
L 2916 4238 
L 2916 4119 
L 1503 -88 
L 1153 -88 
L 2419 3728 
L 1253 3728 
Q 900 3728 750 3644 
Q 488 3500 328 3200 
L 238 3234 
L 644 4238 
z
" transform="scale(0.015625)"/>
       </defs>
       <use xlink:href="#TimesNewRomanPSMT-37"/>
      </g>
     </g>
    </g>
    <g id="ytick_5">
     <g id="line2d_19">
      <path d="M 40.2325 67.900691 
L 408.5125 67.900691 
" clip-path="url(#pe5f1491c98)" style="fill: none; stroke-dasharray: 1.85,0.8; stroke-dashoffset: 0; stroke: #b0b0b0; stroke-opacity: 0.2; stroke-width: 0.5"/>
     </g>
     <g id="line2d_20">
      <g>
       <use xlink:href="#m9c10cff968" x="40.2325" y="67.900691" style="stroke: #000000; stroke-width: 0.8"/>
      </g>
     </g>
     <g id="text_11">
      <!-- 8 -->
      <g transform="translate(25.7325 73.108503) scale(0.15 -0.15)">
       <defs>
        <path id="TimesNewRomanPSMT-38" d="M 1228 2134 
Q 725 2547 579 2797 
Q 434 3047 434 3316 
Q 434 3728 753 4026 
Q 1072 4325 1600 4325 
Q 2113 4325 2425 4047 
Q 2738 3769 2738 3413 
Q 2738 3175 2569 2928 
Q 2400 2681 1866 2347 
Q 2416 1922 2594 1678 
Q 2831 1359 2831 1006 
Q 2831 559 2490 242 
Q 2150 -75 1597 -75 
Q 994 -75 656 303 
Q 388 606 388 966 
Q 388 1247 577 1523 
Q 766 1800 1228 2134 
z
M 1719 2469 
Q 2094 2806 2194 3001 
Q 2294 3197 2294 3444 
Q 2294 3772 2109 3958 
Q 1925 4144 1606 4144 
Q 1288 4144 1088 3959 
Q 888 3775 888 3528 
Q 888 3366 970 3203 
Q 1053 3041 1206 2894 
L 1719 2469 
z
M 1375 2016 
Q 1116 1797 991 1539 
Q 866 1281 866 981 
Q 866 578 1086 336 
Q 1306 94 1647 94 
Q 1984 94 2187 284 
Q 2391 475 2391 747 
Q 2391 972 2272 1150 
Q 2050 1481 1375 2016 
z
" transform="scale(0.015625)"/>
       </defs>
       <use xlink:href="#TimesNewRomanPSMT-38"/>
      </g>
     </g>
    </g>
    <g id="text_12">
     <!-- UMAP 2 -->
     <g transform="translate(18.31 199.199375) rotate(-90) scale(0.16 -0.16)">
      <use xlink:href="#TimesNewRomanPSMT-55"/>
      <use xlink:href="#TimesNewRomanPSMT-4d" transform="translate(72.216797 0)"/>
      <use xlink:href="#TimesNewRomanPSMT-41" transform="translate(161.132812 0)"/>
      <use xlink:href="#TimesNewRomanPSMT-50" transform="translate(233.349609 0)"/>
      <use xlink:href="#TimesNewRomanPSMT-20" transform="translate(285.214844 0)"/>
      <use xlink:href="#TimesNewRomanPSMT-32" transform="translate(310.214844 0)"/>
     </g>
    </g>
   </g>
   <g id="patch_3">
    <path d="M 40.2325 308.981875 
L 40.2325 31.781875 
" style="fill: none; stroke: #000000; stroke-width: 0.8; stroke-linejoin: miter; stroke-linecap: square"/>
   </g>
   <g id="patch_4">
    <path d="M 40.2325 308.981875 
L 408.5125 308.981875 
" style="fill: none; stroke: #000000; stroke-width: 0.8; stroke-linejoin: miter; stroke-linecap: square"/>
   </g>
   <g id="text_13">
    <!-- d) Differential Regime -->
    <g transform="translate(128.9275 21.781875) scale(0.21 -0.21)">
     <defs>
      <path id="TimesNewRomanPSMT-64" d="M 2222 322 
Q 2013 103 1813 7 
Q 1613 -88 1381 -88 
Q 913 -88 563 304 
Q 213 697 213 1313 
Q 213 1928 600 2439 
Q 988 2950 1597 2950 
Q 1975 2950 2222 2709 
L 2222 3238 
Q 2222 3728 2198 3840 
Q 2175 3953 2125 3993 
Q 2075 4034 2000 4034 
Q 1919 4034 1784 3984 
L 1744 4094 
L 2597 4444 
L 2738 4444 
L 2738 1134 
Q 2738 631 2761 520 
Q 2784 409 2836 365 
Q 2888 322 2956 322 
Q 3041 322 3181 375 
L 3216 266 
L 2366 -88 
L 2222 -88 
L 2222 322 
z
M 2222 541 
L 2222 2016 
Q 2203 2228 2109 2403 
Q 2016 2578 1861 2667 
Q 1706 2756 1559 2756 
Q 1284 2756 1069 2509 
Q 784 2184 784 1559 
Q 784 928 1059 592 
Q 1334 256 1672 256 
Q 1956 256 2222 541 
z
" transform="scale(0.015625)"/>
      <path id="TimesNewRomanPSMT-29" d="M 144 4313 
L 144 4444 
Q 619 4209 934 3891 
Q 1381 3434 1625 2820 
Q 1869 2206 1869 1541 
Q 1869 572 1392 -226 
Q 916 -1025 144 -1369 
L 144 -1253 
Q 528 -1038 776 -670 
Q 1025 -303 1145 264 
Q 1266 831 1266 1447 
Q 1266 2113 1163 2663 
Q 1084 3094 967 3353 
Q 850 3613 656 3853 
Q 463 4094 144 4313 
z
" transform="scale(0.015625)"/>
      <path id="TimesNewRomanPSMT-44" d="M 109 0 
L 109 116 
L 269 116 
Q 538 116 650 288 
Q 719 391 719 750 
L 719 3488 
Q 719 3884 631 3984 
Q 509 4122 269 4122 
L 109 4122 
L 109 4238 
L 1834 4238 
Q 2784 4238 3279 4022 
Q 3775 3806 4076 3303 
Q 4378 2800 4378 2141 
Q 4378 1256 3841 663 
Q 3238 0 2003 0 
L 109 0 
z
M 1319 306 
Q 1716 219 1984 219 
Q 2709 219 3187 728 
Q 3666 1238 3666 2109 
Q 3666 2988 3187 3494 
Q 2709 4000 1959 4000 
Q 1678 4000 1319 3909 
L 1319 306 
z
" transform="scale(0.015625)"/>
      <path id="TimesNewRomanPSMT-69" d="M 928 4444 
Q 1059 4444 1151 4351 
Q 1244 4259 1244 4128 
Q 1244 3997 1151 3903 
Q 1059 3809 928 3809 
Q 797 3809 703 3903 
Q 609 3997 609 4128 
Q 609 4259 701 4351 
Q 794 4444 928 4444 
z
M 1188 2947 
L 1188 647 
Q 1188 378 1227 289 
Q 1266 200 1342 156 
Q 1419 113 1622 113 
L 1622 0 
L 231 0 
L 231 113 
Q 441 113 512 153 
Q 584 194 626 287 
Q 669 381 669 647 
L 669 1750 
Q 669 2216 641 2353 
Q 619 2453 572 2492 
Q 525 2531 444 2531 
Q 356 2531 231 2484 
L 188 2597 
L 1050 2947 
L 1188 2947 
z
" transform="scale(0.015625)"/>
      <path id="TimesNewRomanPSMT-66" d="M 1319 2638 
L 1319 756 
Q 1319 356 1406 250 
Q 1522 113 1716 113 
L 1975 113 
L 1975 0 
L 266 0 
L 266 113 
L 394 113 
Q 519 113 622 175 
Q 725 238 764 344 
Q 803 450 803 756 
L 803 2638 
L 247 2638 
L 247 2863 
L 803 2863 
L 803 3050 
Q 803 3478 940 3775 
Q 1078 4072 1361 4255 
Q 1644 4438 1997 4438 
Q 2325 4438 2600 4225 
Q 2781 4084 2781 3909 
Q 2781 3816 2700 3733 
Q 2619 3650 2525 3650 
Q 2453 3650 2373 3701 
Q 2294 3753 2178 3923 
Q 2063 4094 1966 4153 
Q 1869 4213 1750 4213 
Q 1606 4213 1506 4136 
Q 1406 4059 1362 3898 
Q 1319 3738 1319 3069 
L 1319 2863 
L 2056 2863 
L 2056 2638 
L 1319 2638 
z
" transform="scale(0.015625)"/>
      <path id="TimesNewRomanPSMT-65" d="M 681 1784 
Q 678 1147 991 784 
Q 1303 422 1725 422 
Q 2006 422 2214 576 
Q 2422 731 2563 1106 
L 2659 1044 
Q 2594 616 2278 264 
Q 1963 -88 1488 -88 
Q 972 -88 605 314 
Q 238 716 238 1394 
Q 238 2128 614 2539 
Q 991 2950 1559 2950 
Q 2041 2950 2350 2633 
Q 2659 2316 2659 1784 
L 681 1784 
z
M 681 1966 
L 2006 1966 
Q 1991 2241 1941 2353 
Q 1863 2528 1708 2628 
Q 1553 2728 1384 2728 
Q 1125 2728 920 2526 
Q 716 2325 681 1966 
z
" transform="scale(0.015625)"/>
      <path id="TimesNewRomanPSMT-72" d="M 1038 2947 
L 1038 2303 
Q 1397 2947 1775 2947 
Q 1947 2947 2059 2842 
Q 2172 2738 2172 2600 
Q 2172 2478 2090 2393 
Q 2009 2309 1897 2309 
Q 1788 2309 1652 2417 
Q 1516 2525 1450 2525 
Q 1394 2525 1328 2463 
Q 1188 2334 1038 2041 
L 1038 669 
Q 1038 431 1097 309 
Q 1138 225 1241 169 
Q 1344 113 1538 113 
L 1538 0 
L 72 0 
L 72 113 
Q 291 113 397 181 
Q 475 231 506 341 
Q 522 394 522 644 
L 522 1753 
Q 522 2253 501 2348 
Q 481 2444 426 2487 
Q 372 2531 291 2531 
Q 194 2531 72 2484 
L 41 2597 
L 906 2947 
L 1038 2947 
z
" transform="scale(0.015625)"/>
      <path id="TimesNewRomanPSMT-6e" d="M 1034 2341 
Q 1538 2947 1994 2947 
Q 2228 2947 2397 2830 
Q 2566 2713 2666 2444 
Q 2734 2256 2734 1869 
L 2734 647 
Q 2734 375 2778 278 
Q 2813 200 2889 156 
Q 2966 113 3172 113 
L 3172 0 
L 1756 0 
L 1756 113 
L 1816 113 
Q 2016 113 2095 173 
Q 2175 234 2206 353 
Q 2219 400 2219 647 
L 2219 1819 
Q 2219 2209 2117 2386 
Q 2016 2563 1775 2563 
Q 1403 2563 1034 2156 
L 1034 647 
Q 1034 356 1069 288 
Q 1113 197 1189 155 
Q 1266 113 1500 113 
L 1500 0 
L 84 0 
L 84 113 
L 147 113 
Q 366 113 442 223 
Q 519 334 519 647 
L 519 1709 
Q 519 2225 495 2337 
Q 472 2450 423 2490 
Q 375 2531 294 2531 
Q 206 2531 84 2484 
L 38 2597 
L 900 2947 
L 1034 2947 
L 1034 2341 
z
" transform="scale(0.015625)"/>
      <path id="TimesNewRomanPSMT-74" d="M 1031 3803 
L 1031 2863 
L 1700 2863 
L 1700 2644 
L 1031 2644 
L 1031 788 
Q 1031 509 1111 412 
Q 1191 316 1316 316 
Q 1419 316 1516 380 
Q 1613 444 1666 569 
L 1788 569 
Q 1678 263 1478 108 
Q 1278 -47 1066 -47 
Q 922 -47 784 33 
Q 647 113 581 261 
Q 516 409 516 719 
L 516 2644 
L 63 2644 
L 63 2747 
Q 234 2816 414 2980 
Q 594 3144 734 3369 
Q 806 3488 934 3803 
L 1031 3803 
z
" transform="scale(0.015625)"/>
      <path id="TimesNewRomanPSMT-61" d="M 1822 413 
Q 1381 72 1269 19 
Q 1100 -59 909 -59 
Q 613 -59 420 144 
Q 228 347 228 678 
Q 228 888 322 1041 
Q 450 1253 767 1440 
Q 1084 1628 1822 1897 
L 1822 2009 
Q 1822 2438 1686 2597 
Q 1550 2756 1291 2756 
Q 1094 2756 978 2650 
Q 859 2544 859 2406 
L 866 2225 
Q 866 2081 792 2003 
Q 719 1925 600 1925 
Q 484 1925 411 2006 
Q 338 2088 338 2228 
Q 338 2497 613 2722 
Q 888 2947 1384 2947 
Q 1766 2947 2009 2819 
Q 2194 2722 2281 2516 
Q 2338 2381 2338 1966 
L 2338 994 
Q 2338 584 2353 492 
Q 2369 400 2405 369 
Q 2441 338 2488 338 
Q 2538 338 2575 359 
Q 2641 400 2828 588 
L 2828 413 
Q 2478 -56 2159 -56 
Q 2006 -56 1915 50 
Q 1825 156 1822 413 
z
M 1822 616 
L 1822 1706 
Q 1350 1519 1213 1441 
Q 966 1303 859 1153 
Q 753 1003 753 825 
Q 753 600 887 451 
Q 1022 303 1197 303 
Q 1434 303 1822 616 
z
" transform="scale(0.015625)"/>
      <path id="TimesNewRomanPSMT-6c" d="M 1184 4444 
L 1184 647 
Q 1184 378 1223 290 
Q 1263 203 1344 158 
Q 1425 113 1647 113 
L 1647 0 
L 244 0 
L 244 113 
Q 441 113 512 153 
Q 584 194 625 287 
Q 666 381 666 647 
L 666 3247 
Q 666 3731 644 3842 
Q 622 3953 573 3993 
Q 525 4034 450 4034 
Q 369 4034 244 3984 
L 191 4094 
L 1044 4444 
L 1184 4444 
z
" transform="scale(0.015625)"/>
      <path id="TimesNewRomanPSMT-52" d="M 4325 0 
L 3194 0 
L 1759 1981 
Q 1600 1975 1500 1975 
Q 1459 1975 1412 1976 
Q 1366 1978 1316 1981 
L 1316 750 
Q 1316 350 1403 253 
Q 1522 116 1759 116 
L 1925 116 
L 1925 0 
L 109 0 
L 109 116 
L 269 116 
Q 538 116 653 291 
Q 719 388 719 750 
L 719 3488 
Q 719 3888 631 3984 
Q 509 4122 269 4122 
L 109 4122 
L 109 4238 
L 1653 4238 
Q 2328 4238 2648 4139 
Q 2969 4041 3192 3777 
Q 3416 3513 3416 3147 
Q 3416 2756 3161 2468 
Q 2906 2181 2372 2063 
L 3247 847 
Q 3547 428 3762 290 
Q 3978 153 4325 116 
L 4325 0 
z
M 1316 2178 
Q 1375 2178 1419 2176 
Q 1463 2175 1491 2175 
Q 2097 2175 2405 2437 
Q 2713 2700 2713 3106 
Q 2713 3503 2464 3751 
Q 2216 4000 1806 4000 
Q 1625 4000 1316 3941 
L 1316 2178 
z
" transform="scale(0.015625)"/>
      <path id="TimesNewRomanPSMT-67" d="M 966 1044 
Q 703 1172 562 1401 
Q 422 1631 422 1909 
Q 422 2334 742 2640 
Q 1063 2947 1563 2947 
Q 1972 2947 2272 2747 
L 2878 2747 
Q 3013 2747 3034 2739 
Q 3056 2731 3066 2713 
Q 3084 2684 3084 2613 
Q 3084 2531 3069 2500 
Q 3059 2484 3036 2475 
Q 3013 2466 2878 2466 
L 2506 2466 
Q 2681 2241 2681 1891 
Q 2681 1491 2375 1206 
Q 2069 922 1553 922 
Q 1341 922 1119 984 
Q 981 866 932 777 
Q 884 688 884 625 
Q 884 572 936 522 
Q 988 472 1138 450 
Q 1225 438 1575 428 
Q 2219 413 2409 384 
Q 2700 344 2873 169 
Q 3047 -6 3047 -263 
Q 3047 -616 2716 -925 
Q 2228 -1381 1444 -1381 
Q 841 -1381 425 -1109 
Q 191 -953 191 -784 
Q 191 -709 225 -634 
Q 278 -519 444 -313 
Q 466 -284 763 25 
Q 600 122 533 198 
Q 466 275 466 372 
Q 466 481 555 628 
Q 644 775 966 1044 
z
M 1509 2797 
Q 1278 2797 1122 2612 
Q 966 2428 966 2047 
Q 966 1553 1178 1281 
Q 1341 1075 1591 1075 
Q 1828 1075 1981 1253 
Q 2134 1431 2134 1813 
Q 2134 2309 1919 2591 
Q 1759 2797 1509 2797 
z
M 934 0 
Q 788 -159 713 -296 
Q 638 -434 638 -550 
Q 638 -700 819 -813 
Q 1131 -1006 1722 -1006 
Q 2284 -1006 2551 -807 
Q 2819 -609 2819 -384 
Q 2819 -222 2659 -153 
Q 2497 -84 2016 -72 
Q 1313 -53 934 0 
z
" transform="scale(0.015625)"/>
      <path id="TimesNewRomanPSMT-6d" d="M 1050 2338 
Q 1363 2650 1419 2697 
Q 1559 2816 1721 2881 
Q 1884 2947 2044 2947 
Q 2313 2947 2506 2790 
Q 2700 2634 2766 2338 
Q 3088 2713 3309 2830 
Q 3531 2947 3766 2947 
Q 3994 2947 4170 2830 
Q 4347 2713 4450 2447 
Q 4519 2266 4519 1878 
L 4519 647 
Q 4519 378 4559 278 
Q 4591 209 4675 161 
Q 4759 113 4950 113 
L 4950 0 
L 3538 0 
L 3538 113 
L 3597 113 
Q 3781 113 3884 184 
Q 3956 234 3988 344 
Q 4000 397 4000 647 
L 4000 1878 
Q 4000 2228 3916 2372 
Q 3794 2572 3525 2572 
Q 3359 2572 3192 2489 
Q 3025 2406 2788 2181 
L 2781 2147 
L 2788 2013 
L 2788 647 
Q 2788 353 2820 281 
Q 2853 209 2943 161 
Q 3034 113 3253 113 
L 3253 0 
L 1806 0 
L 1806 113 
Q 2044 113 2133 169 
Q 2222 225 2256 338 
Q 2272 391 2272 647 
L 2272 1878 
Q 2272 2228 2169 2381 
Q 2031 2581 1784 2581 
Q 1616 2581 1450 2491 
Q 1191 2353 1050 2181 
L 1050 647 
Q 1050 366 1089 281 
Q 1128 197 1204 155 
Q 1281 113 1516 113 
L 1516 0 
L 100 0 
L 100 113 
Q 297 113 375 155 
Q 453 197 493 289 
Q 534 381 534 647 
L 534 1741 
Q 534 2213 506 2350 
Q 484 2453 437 2492 
Q 391 2531 309 2531 
Q 222 2531 100 2484 
L 53 2597 
L 916 2947 
L 1050 2947 
L 1050 2338 
z
" transform="scale(0.015625)"/>
     </defs>
     <use xlink:href="#TimesNewRomanPSMT-64"/>
     <use xlink:href="#TimesNewRomanPSMT-29" transform="translate(50 0)"/>
     <use xlink:href="#TimesNewRomanPSMT-20" transform="translate(83.300781 0)"/>
     <use xlink:href="#TimesNewRomanPSMT-44" transform="translate(108.300781 0)"/>
     <use xlink:href="#TimesNewRomanPSMT-69" transform="translate(180.517578 0)"/>
     <use xlink:href="#TimesNewRomanPSMT-66" transform="translate(208.300781 0)"/>
     <use xlink:href="#TimesNewRomanPSMT-66" transform="translate(239.851562 0)"/>
     <use xlink:href="#TimesNewRomanPSMT-65" transform="translate(273.152344 0)"/>
     <use xlink:href="#TimesNewRomanPSMT-72" transform="translate(317.537109 0)"/>
     <use xlink:href="#TimesNewRomanPSMT-65" transform="translate(350.837891 0)"/>
     <use xlink:href="#TimesNewRomanPSMT-6e" transform="translate(395.222656 0)"/>
     <use xlink:href="#TimesNewRomanPSMT-74" transform="translate(445.222656 0)"/>
     <use xlink:href="#TimesNewRomanPSMT-69" transform="translate(473.005859 0)"/>
     <use xlink:href="#TimesNewRomanPSMT-61" transform="translate(500.789062 0)"/>
     <use xlink:href="#TimesNewRomanPSMT-6c" transform="translate(545.173828 0)"/>
     <use xlink:href="#TimesNewRomanPSMT-20" transform="translate(572.957031 0)"/>
     <use xlink:href="#TimesNewRomanPSMT-52" transform="translate(597.957031 0)"/>
     <use xlink:href="#TimesNewRomanPSMT-65" transform="translate(664.65625 0)"/>
     <use xlink:href="#TimesNewRomanPSMT-67" transform="translate(709.041016 0)"/>
     <use xlink:href="#TimesNewRomanPSMT-69" transform="translate(759.041016 0)"/>
     <use xlink:href="#TimesNewRomanPSMT-6d" transform="translate(786.824219 0)"/>
     <use xlink:href="#TimesNewRomanPSMT-65" transform="translate(864.607422 0)"/>
    </g>
   </g>
   <g id="legend_1">
    <g id="line2d_21">
     <defs>
      <path id="m4e0d2461d8" d="M 0 3.5 
C 0.928211 3.5 1.81853 3.131218 2.474874 2.474874 
C 3.131218 1.81853 3.5 0.928211 3.5 0 
C 3.5 -0.928211 3.131218 -1.81853 2.474874 -2.474874 
C 1.81853 -3.131218 0.928211 -3.5 0 -3.5 
C -0.928211 -3.5 -1.81853 -3.131218 -2.474874 -2.474874 
C -3.131218 -1.81853 -3.5 -0.928211 -3.5 0 
C -3.5 0.928211 -3.131218 1.81853 -2.474874 2.474874 
C -1.81853 3.131218 -0.928211 3.5 0 3.5 
z
" style="stroke: #ffffff; stroke-width: 0.45"/>
     </defs>
     <g>
      <use xlink:href="#m4e0d2461d8" x="66.8325" y="49.281875" style="fill: #9e9e9e; stroke: #ffffff; stroke-width: 0.45"/>
     </g>
    </g>
    <g id="text_14">
     <!-- False -->
     <g transform="translate(92.0325 54.181875) scale(0.14 -0.14)">
      <defs>
       <path id="TimesNewRomanPSMT-46" d="M 1309 4006 
L 1309 2341 
L 2081 2341 
Q 2347 2341 2470 2458 
Q 2594 2575 2634 2922 
L 2750 2922 
L 2750 1488 
L 2634 1488 
Q 2631 1734 2570 1850 
Q 2509 1966 2401 2023 
Q 2294 2081 2081 2081 
L 1309 2081 
L 1309 750 
Q 1309 428 1350 325 
Q 1381 247 1481 191 
Q 1619 116 1769 116 
L 1922 116 
L 1922 0 
L 103 0 
L 103 116 
L 253 116 
Q 516 116 634 269 
Q 709 369 709 750 
L 709 3488 
Q 709 3809 669 3913 
Q 638 3991 541 4047 
Q 406 4122 253 4122 
L 103 4122 
L 103 4238 
L 3256 4238 
L 3297 3306 
L 3188 3306 
Q 3106 3603 2998 3742 
Q 2891 3881 2733 3943 
Q 2575 4006 2244 4006 
L 1309 4006 
z
" transform="scale(0.015625)"/>
       <path id="TimesNewRomanPSMT-73" d="M 2050 2947 
L 2050 1972 
L 1947 1972 
Q 1828 2431 1642 2597 
Q 1456 2763 1169 2763 
Q 950 2763 815 2647 
Q 681 2531 681 2391 
Q 681 2216 781 2091 
Q 878 1963 1175 1819 
L 1631 1597 
Q 2266 1288 2266 781 
Q 2266 391 1970 151 
Q 1675 -88 1309 -88 
Q 1047 -88 709 6 
Q 606 38 541 38 
Q 469 38 428 -44 
L 325 -44 
L 325 978 
L 428 978 
Q 516 541 762 319 
Q 1009 97 1316 97 
Q 1531 97 1667 223 
Q 1803 350 1803 528 
Q 1803 744 1651 891 
Q 1500 1038 1047 1263 
Q 594 1488 453 1669 
Q 313 1847 313 2119 
Q 313 2472 555 2709 
Q 797 2947 1181 2947 
Q 1350 2947 1591 2875 
Q 1750 2828 1803 2828 
Q 1853 2828 1881 2850 
Q 1909 2872 1947 2947 
L 2050 2947 
z
" transform="scale(0.015625)"/>
      </defs>
      <use xlink:href="#TimesNewRomanPSMT-46"/>
      <use xlink:href="#TimesNewRomanPSMT-61" transform="translate(55.615234 0)"/>
      <use xlink:href="#TimesNewRomanPSMT-6c" transform="translate(100 0)"/>
      <use xlink:href="#TimesNewRomanPSMT-73" transform="translate(127.783203 0)"/>
      <use xlink:href="#TimesNewRomanPSMT-65" transform="translate(166.699219 0)"/>
     </g>
    </g>
    <g id="line2d_22">
     <defs>
      <path id="m22ff461f0e" d="M 0 3.5 
C 0.928211 3.5 1.81853 3.131218 2.474874 2.474874 
C 3.131218 1.81853 3.5 0.928211 3.5 0 
C 3.5 -0.928211 3.131218 -1.81853 2.474874 -2.474874 
C 1.81853 -3.131218 0.928211 -3.5 0 -3.5 
C -0.928211 -3.5 -1.81853 -3.131218 -2.474874 -2.474874 
C -3.131218 -1.81853 -3.5 -0.928211 -3.5 0 
C -3.5 0.928211 -3.131218 1.81853 -2.474874 2.474874 
C -1.81853 3.131218 -0.928211 3.5 0 3.5 
z
" style="stroke: #ffffff; stroke-width: 0.45"/>
     </defs>
     <g>
      <use xlink:href="#m22ff461f0e" x="66.8325" y="69.076563" style="fill: #1b9e77; stroke: #ffffff; stroke-width: 0.45"/>
     </g>
    </g>
    <g id="text_15">
     <!-- True -->
     <g transform="translate(92.0325 73.976563) scale(0.14 -0.14)">
      <defs>
       <path id="TimesNewRomanPSMT-54" d="M 3703 4238 
L 3750 3244 
L 3631 3244 
Q 3597 3506 3538 3619 
Q 3441 3800 3280 3886 
Q 3119 3972 2856 3972 
L 2259 3972 
L 2259 734 
Q 2259 344 2344 247 
Q 2463 116 2709 116 
L 2856 116 
L 2856 0 
L 1059 0 
L 1059 116 
L 1209 116 
Q 1478 116 1591 278 
Q 1659 378 1659 734 
L 1659 3972 
L 1150 3972 
Q 853 3972 728 3928 
Q 566 3869 450 3700 
Q 334 3531 313 3244 
L 194 3244 
L 244 4238 
L 3703 4238 
z
" transform="scale(0.015625)"/>
       <path id="TimesNewRomanPSMT-75" d="M 2709 2863 
L 2709 1128 
Q 2709 631 2732 520 
Q 2756 409 2807 365 
Q 2859 322 2928 322 
Q 3025 322 3147 375 
L 3191 266 
L 2334 -88 
L 2194 -88 
L 2194 519 
Q 1825 119 1631 15 
Q 1438 -88 1222 -88 
Q 981 -88 804 51 
Q 628 191 559 409 
Q 491 628 491 1028 
L 491 2306 
Q 491 2509 447 2587 
Q 403 2666 317 2708 
Q 231 2750 6 2747 
L 6 2863 
L 1009 2863 
L 1009 947 
Q 1009 547 1148 422 
Q 1288 297 1484 297 
Q 1619 297 1789 381 
Q 1959 466 2194 703 
L 2194 2325 
Q 2194 2569 2105 2655 
Q 2016 2741 1734 2747 
L 1734 2863 
L 2709 2863 
z
" transform="scale(0.015625)"/>
      </defs>
      <use xlink:href="#TimesNewRomanPSMT-54"/>
      <use xlink:href="#TimesNewRomanPSMT-72" transform="translate(57.583984 0)"/>
      <use xlink:href="#TimesNewRomanPSMT-75" transform="translate(90.884766 0)"/>
      <use xlink:href="#TimesNewRomanPSMT-65" transform="translate(140.884766 0)"/>
     </g>
    </g>
   </g>
  </g>
 </g>
 <defs>
  <clipPath id="pe5f1491c98">
   <rect x="40.2325" y="31.781875" width="368.28" height="277.2"/>
  </clipPath>
 </defs>
</svg>
